# xmcd
#
# Track frame offsets:
#	150
#	15383
#	31225
#	51148
#	69830
#	85201
#	103222
#	109631
#	137800
#	153955
#	173238
#	201757
#	223346
#	247573
#	260045
#	275118
#	292755
#	305255
#	322457
#	340275
#
# Disc length: 4777 seconds
#
# Revision: 6
# Processed by: cddbd v1.5.2PL0 Copyright (c) Steve Scherf et al.
# Submitted via: audiograbber 1.83.01
#
DISCID=2312a714
DTITLE=Various Artist - The Birth of the BLUES [CD2]
DYEAR=2002
DGENRE=Blues
TTITLE0=Louisiana Red - Alabama Train
TTITLE1=Luther Allison - You're Gonna Need Me
TTITLE2=Fenton Robinson - You Don't Know What Love Is
TTITLE3=Byther Smith - Come On In This House
TTITLE4=Buddy Guy and Junior Wells - Hoodoo Man
TTITLE5=Byther Smith - Hold That Train
TTITLE6=Muddy Waters - Baby Please Don't Go
TTITLE7=Luther Johnson and The Muddy Waters Band - I Got A Mind To Travel
TTITLE8=Buddy Reed - Rialto Rock
TTITLE9=Sunnyland Slim - Soft And Mellow Stella
TTITLE10=Billy Boy Arnold and Tony McPhee - Blue And Lonesome
TTITLE11=U. P. Wilson - Hold On Baby
TTITLE12=Jimmy Johnson - When My First Wife Left Me
TTITLE13=Buddy Guy - You Sure Can't Do
TTITLE14=Tommy Tucker - Drunk
TTITLE15=Colin 'Barrelhouse' Banagan - Drivin' The Boogie
TTITLE16=Muddy Waters - Trouble No More
TTITLE17=John Lee Hooker - Goin' Mad Blues
TTITLE18=Earl Hooker - Bertha
TTITLE19=Tommy Tucker - Hi Heel Sneakers
EXTD=
EXTT0=
EXTT1=
EXTT2=
EXTT3=
EXTT4=
EXTT5=
EXTT6=
EXTT7=
EXTT8=
EXTT9=
EXTT10=
EXTT11=
EXTT12=
EXTT13=
EXTT14=
EXTT15=
EXTT16=
EXTT17=
EXTT18=
EXTT19=
PLAYORDER=
